<svg xmlns="http://www.w3.org/2000/svg" viewBox="0 0 200 200" width="200" height="200">
  <circle cx="100" cy="100" r="95" fill="#0d1117"/>

  <g>
    <animateTransform attributeName="transform" type="translate" values="0 0; 0 -4; 0 0" dur="3s" repeatCount="indefinite"/>

    <path d="M138,148 Q165,132 155,100" stroke="#dc2626" fill="none" stroke-width="7" stroke-linecap="round">
      <animateTransform attributeName="transform" type="rotate" values="-5 138 148; 5 138 148; -5 138 148" dur="2s" repeatCount="indefinite"/>
    </path>

    <ellipse cx="100" cy="142" rx="42" ry="32" fill="#dc2626"/>

    <circle cx="100" cy="90" r="35" fill="#dc2626"/>

    <polygon points="72,62 58,28 88,52" fill="#dc2626"/>
    <polygon points="74,59 64,35 85,52" fill="#fca5a5"/>

    <polygon points="128,62 142,28 112,52" fill="#dc2626"/>
    <polygon points="126,59 136,35 115,52" fill="#fca5a5"/>

    <ellipse cx="87" cy="85" rx="5" ry="5" fill="#0d1117">
      <animate attributeName="ry" values="5;5;0.5;5;5" dur="4s" repeatCount="indefinite" keyTimes="0;0.45;0.5;0.55;1"/>
    </ellipse>
    <ellipse cx="113" cy="85" rx="5" ry="5" fill="#0d1117">
      <animate attributeName="ry" values="5;5;0.5;5;5" dur="4s" repeatCount="indefinite" keyTimes="0;0.45;0.5;0.55;1"/>
    </ellipse>

    <circle cx="89" cy="83" r="2" fill="white"/>
    <circle cx="115" cy="83" r="2" fill="white"/>

    <ellipse cx="100" cy="95" rx="3" ry="2.5" fill="#fca5a5"/>

    <path d="M96,99 Q100,104 104,99" stroke="#0d1117" fill="none" stroke-width="1.5" stroke-linecap="round"/>

    <circle cx="77" cy="95" r="5" fill="#fca5a5" opacity="0.4"/>
    <circle cx="123" cy="95" r="5" fill="#fca5a5" opacity="0.4"/>

    <line x1="62" y1="90" x2="80" y2="93" stroke="#fca5a5" stroke-width="1" opacity="0.6"/>
    <line x1="62" y1="97" x2="80" y2="97" stroke="#fca5a5" stroke-width="1" opacity="0.6"/>
    <line x1="120" y1="93" x2="138" y2="90" stroke="#fca5a5" stroke-width="1" opacity="0.6"/>
    <line x1="120" y1="97" x2="138" y2="97" stroke="#fca5a5" stroke-width="1" opacity="0.6"/>

    <rect x="88" y="168" width="10" height="6" rx="2" fill="#dc2626"/>
    <rect x="102" y="168" width="10" height="6" rx="2" fill="#dc2626"/>
  </g>

  <circle cx="35" cy="50" r="2" fill="#dc2626">
    <animate attributeName="opacity" values="0;1;0" dur="3s" repeatCount="indefinite"/>
  </circle>
  <circle cx="165" cy="42" r="1.5" fill="#fca5a5">
    <animate attributeName="opacity" values="0;0.8;0" dur="2.5s" repeatCount="indefinite" begin="0.5s"/>
  </circle>
  <circle cx="155" cy="168" r="2" fill="#dc2626">
    <animate attributeName="opacity" values="0;0.9;0" dur="3.5s" repeatCount="indefinite" begin="1s"/>
  </circle>
  <circle cx="40" cy="158" r="1.5" fill="#fca5a5">
    <animate attributeName="opacity" values="0;0.7;0" dur="2.8s" repeatCount="indefinite" begin="1.5s"/>
  </circle>
</svg>
